<svg xmlns="http://www.w3.org/2000/svg" viewBox="12 32 236 196">
  <path d="M 18 120 Q 32 114 46 120 T 74 120 T 100 120" fill="none" stroke="#8ab4e4" stroke-width="8" stroke-linecap="round"/>
  <path d="M 22 140 Q 36 134 50 140 T 78 140 T 100 140" fill="none" stroke="#8ab4e4" stroke-width="8" stroke-linecap="round"/>
  <path d="M 26 160 Q 40 154 54 160 T 82 160 T 100 160" fill="none" stroke="#8ab4e4" stroke-width="8" stroke-linecap="round"/>
  <path d="M 160 120 Q 174 114 188 120 T 216 120 T 242 120" fill="none" stroke="#8ab4e4" stroke-width="8" stroke-linecap="round"/>
  <path d="M 160 140 Q 174 134 188 140 T 216 140 T 238 140" fill="none" stroke="#8ab4e4" stroke-width="8" stroke-linecap="round"/>
  <path d="M 160 160 Q 174 154 188 160 T 216 160 T 234 160" fill="none" stroke="#8ab4e4" stroke-width="8" stroke-linecap="round"/>
  <path d="M 130 40 Q 100 75 96 140 Q 94 188 130 220 Q 166 188 164 140 Q 160 75 130 40 Z" fill="none" stroke="#8ab4e4" stroke-width="10" stroke-linejoin="round"/>
  <circle cx="130" cy="145" r="17" fill="none" stroke="#8ab4e4" stroke-width="7"/>
  <circle cx="130" cy="145" r="11" fill="#8ab4e4"/>
  <line x1="108" y1="103" x2="152" y2="103" stroke="#8ab4e4" stroke-width="4.5" opacity="0.7"/>
  <line x1="106" y1="187" x2="154" y2="187" stroke="#8ab4e4" stroke-width="4.5" opacity="0.7"/>
</svg>
